<?xml version="1.0" encoding="UTF-8" standalone="no"?> <svg width="64" height="64" viewBox="0 0 64 64" fill="none" xmlns="http://www.w3.org/2000/svg">
<path d="M47.81 15.37C47.81 15.37 47.81 15.3 47.81 15.27C47.7782 15.208 47.7378 15.1507 47.69 15.1C47.6651 15.0394 47.6276 14.9849 47.58 14.94V14.94L35.93 3.29C35.7353 3.10578 35.478 3.00216 35.21 3H8C6.67392 3 5.40215 3.52678 4.46447 4.46447C3.52678 5.40215 3 6.67392 3 8V56C3 57.3261 3.52678 58.5979 4.46447 59.5355C5.40215 60.4732 6.67392 61 8 61H42.87C44.1961 61 45.4679 60.4732 46.4055 59.5355C47.3432 58.5979 47.87 57.3261 47.87 56V15.66C47.8645 15.5609 47.8443 15.4632 47.81 15.37V15.37Z" fill="#EEEFEE"/>
<path d="M59.34 53.71L59 53.4L47.12 43.48H47.01C46.934 43.4352 46.8536 43.3983 46.77 43.37H46.69C46.5869 43.3601 46.4831 43.3601 46.38 43.37V43.37C46.2707 43.3871 46.1656 43.4244 46.07 43.48V43.48C45.9904 43.5319 45.9167 43.5923 45.85 43.66C45.85 43.66 45.85 43.66 45.85 43.72C45.4867 44.226 45.0819 44.7009 44.64 45.14C44.1332 45.5831 43.5839 45.975 43 46.31C42.9734 46.3409 42.9499 46.3744 42.93 46.41C42.869 46.4664 42.8152 46.5303 42.77 46.6C42.77 46.6 42.77 46.69 42.72 46.74C42.6895 46.81 42.6693 46.8841 42.66 46.96C42.655 47.0099 42.655 47.0601 42.66 47.11C42.6496 47.183 42.6496 47.257 42.66 47.33C42.66 47.39 42.66 47.44 42.73 47.5C42.8 47.56 42.73 47.6 42.8 47.65L52.72 59.52C53.1084 60.0059 53.5953 60.4041 54.1485 60.6884C54.7017 60.9728 55.3089 61.1369 55.93 61.17H56.17C57.0479 61.1694 57.9059 60.9091 58.6362 60.422C59.3665 59.9348 59.9364 59.2426 60.2742 58.4323C60.612 57.622 60.7026 56.73 60.5346 55.8683C60.3666 55.0067 59.9475 54.214 59.33 53.59L59.34 53.71Z" fill="#575B6D"/>
<path d="M47.82 15.43C47.8256 15.3735 47.8256 15.3165 47.82 15.26C47.7958 15.2129 47.7656 15.1692 47.73 15.13C47.6857 15.0593 47.6355 14.9924 47.58 14.93V14.93L35.93 3.29002C35.8365 3.19734 35.7257 3.12401 35.6039 3.07425C35.482 3.02448 35.3516 2.99926 35.22 3.00002C35.0814 3.00299 34.9449 3.03475 34.8192 3.09329C34.6936 3.15182 34.5814 3.23584 34.49 3.34002C34.3219 3.51936 34.2258 3.75431 34.22 4.00002V15.66C34.22 15.9252 34.3253 16.1796 34.5129 16.3671C34.7004 16.5547 34.9548 16.66 35.22 16.66H46.88C47.1452 16.66 47.3995 16.5547 47.5871 16.3671C47.7746 16.1796 47.88 15.9252 47.88 15.66C47.8707 15.5809 47.8505 15.5035 47.82 15.43V15.43Z" fill="#DBD8DD"/>
<path d="M11.9 22.49H25.44C25.7052 22.49 25.9596 22.3846 26.1471 22.1971C26.3347 22.0096 26.44 21.7552 26.44 21.49C26.44 21.2248 26.3347 20.9704 26.1471 20.7829C25.9596 20.5953 25.7052 20.49 25.44 20.49H11.9C11.6348 20.49 11.3805 20.5953 11.1929 20.7829C11.0054 20.9704 10.9 21.2248 10.9 21.49C10.9 21.7552 11.0054 22.0096 11.1929 22.1971C11.3805 22.3846 11.6348 22.49 11.9 22.49V22.49Z" fill="#DBD8DD"/>
<path d="M11.9 29.15H27.57C27.8352 29.15 28.0896 29.0447 28.2771 28.8571C28.4647 28.6696 28.57 28.4152 28.57 28.15C28.57 27.8848 28.4647 27.6305 28.2771 27.4429C28.0896 27.2554 27.8352 27.15 27.57 27.15H11.9C11.6348 27.15 11.3805 27.2554 11.1929 27.4429C11.0054 27.6305 10.9 27.8848 10.9 28.15C10.9 28.4152 11.0054 28.6696 11.1929 28.8571C11.3805 29.0447 11.6348 29.15 11.9 29.15V29.15Z" fill="#DBD8DD"/>
<path d="M11.9 35.81H24.09C24.3552 35.81 24.6096 35.7046 24.7971 35.5171C24.9847 35.3296 25.09 35.0752 25.09 34.81C25.09 34.5448 24.9847 34.2904 24.7971 34.1029C24.6096 33.9154 24.3552 33.81 24.09 33.81H11.9C11.6348 33.81 11.3805 33.9154 11.1929 34.1029C11.0054 34.2904 10.9 34.5448 10.9 34.81C10.9 35.0752 11.0054 35.3296 11.1929 35.5171C11.3805 35.7046 11.6348 35.81 11.9 35.81V35.81Z" fill="#DBD8DD"/>
<path d="M11.9 42.46H24.74C25.0052 42.46 25.2596 42.3547 25.4471 42.1671C25.6347 41.9796 25.74 41.7252 25.74 41.46C25.74 41.1948 25.6347 40.9405 25.4471 40.7529C25.2596 40.5654 25.0052 40.46 24.74 40.46H11.9C11.6348 40.46 11.3805 40.5654 11.1929 40.7529C11.0054 40.9405 10.9 41.1948 10.9 41.46C10.9 41.7252 11.0054 41.9796 11.1929 42.1671C11.3805 42.3547 11.6348 42.46 11.9 42.46V42.46Z" fill="#DBD8DD"/>
<path d="M30.78 47.12H11.9C11.6348 47.12 11.3805 47.2254 11.1929 47.4129C11.0054 47.6004 10.9 47.8548 10.9 48.12C10.9 48.3852 11.0054 48.6396 11.1929 48.8271C11.3805 49.0146 11.6348 49.12 11.9 49.12H30.78C31.0452 49.12 31.2996 49.0146 31.4871 48.8271C31.6747 48.6396 31.78 48.3852 31.78 48.12C31.78 47.8548 31.6747 47.6004 31.4871 47.4129C31.2996 47.2254 31.0452 47.12 30.78 47.12Z" fill="#DBD8DD"/>
<path d="M45.87 27.46C43.9901 25.576 41.5936 24.292 38.9838 23.7706C36.3739 23.2492 33.668 23.5139 31.2086 24.531C28.7492 25.5481 26.6468 27.272 25.1676 29.4845C23.6884 31.697 22.8988 34.2986 22.8988 36.96C22.8988 39.6214 23.6884 42.2231 25.1676 44.4355C26.6468 46.648 28.7492 48.3719 31.2086 49.3891C33.668 50.4062 36.3739 50.6708 38.9838 50.1494C41.5936 49.628 43.9901 48.344 45.87 46.46C47.1253 45.2168 48.1218 43.7372 48.8019 42.1066C49.482 40.476 49.8322 38.7268 49.8322 36.96C49.8322 35.1933 49.482 33.444 48.8019 31.8134C48.1218 30.1828 47.1253 28.7032 45.87 27.46Z" fill="#64B5F6"/>
<path d="M59.34 53.71L59 53.4L47.79 44C49.0852 41.8979 49.7776 39.4802 49.7917 37.0112C49.8058 34.5422 49.1411 32.1168 47.87 30V15.66C47.8731 15.6267 47.8731 15.5933 47.87 15.56C47.8747 15.5403 47.8747 15.5197 47.87 15.5C47.8425 15.277 47.7361 15.0713 47.57 14.92L35.93 3.29C35.7353 3.10578 35.478 3.00216 35.21 3H8C6.67392 3 5.40215 3.52678 4.46447 4.46447C3.52678 5.40215 3 6.67392 3 8V56C3 57.3261 3.52678 58.5979 4.46447 59.5355C5.40215 60.4732 6.67392 61 8 61H42.87C44.1961 61 45.4679 60.4732 46.4055 59.5355C47.3432 58.5979 47.87 57.3261 47.87 56V53.83L52.73 59.64C56.78 64.3 63.52 58.24 59.34 53.71ZM44.46 45.07C42.5844 46.9499 40.1147 48.1208 37.4721 48.3829C34.8295 48.645 32.1778 47.9821 29.9695 46.5071C27.7612 45.0322 26.1331 42.8368 25.363 40.2953C24.5928 37.7539 24.7284 35.024 25.7465 32.5714C26.7647 30.1188 28.6023 28.0954 30.9458 26.8465C33.2894 25.5976 35.9937 25.2006 38.5973 25.7232C41.2009 26.2458 43.5425 27.6557 45.2226 29.7122C46.9027 31.7687 47.8172 34.3445 47.81 37C47.8114 38.4996 47.5161 39.9846 46.9412 41.3696C46.3662 42.7546 45.523 44.0122 44.46 45.07V45.07ZM36.21 6.41L44.45 14.66H36.21V6.41ZM45.87 56C45.87 56.7956 45.5539 57.5587 44.9913 58.1213C44.4287 58.6839 43.6656 59 42.87 59H8C7.20435 59 6.44129 58.6839 5.87868 58.1213C5.31607 57.5587 5 56.7956 5 56V8C5 7.20435 5.31607 6.44129 5.87868 5.87868C6.44129 5.31607 7.20435 5 8 5H34.21V15.66C34.21 15.9252 34.3154 16.1796 34.5029 16.3671C34.6904 16.5546 34.9448 16.66 35.21 16.66H45.87V27.46C43.4039 24.9931 40.0754 23.5816 36.5877 23.5237C33.1001 23.4659 29.7265 24.7662 27.18 27.15H11.9C11.6348 27.15 11.3804 27.2554 11.1929 27.4429C11.0054 27.6304 10.9 27.8848 10.9 28.15C10.9 28.4152 11.0054 28.6696 11.1929 28.8571C11.3804 29.0446 11.6348 29.15 11.9 29.15H25.43C24.4206 30.5483 23.6968 32.1318 23.3 33.81H11.9C11.6348 33.81 11.3804 33.9154 11.1929 34.1029C11.0054 34.2904 10.9 34.5448 10.9 34.81C10.9 35.0752 11.0054 35.3296 11.1929 35.5171C11.3804 35.7046 11.6348 35.81 11.9 35.81H23C22.8693 37.3726 23.0114 38.9461 23.42 40.46H11.9C11.6348 40.46 11.3804 40.5654 11.1929 40.7529C11.0054 40.9404 10.9 41.1948 10.9 41.46C10.9 41.7252 11.0054 41.9796 11.1929 42.1671C11.3804 42.3546 11.6348 42.46 11.9 42.46H24.09C24.7575 43.9485 25.6892 45.3038 26.84 46.46C27.07 46.68 27.3 46.88 27.54 47.09H11.9C11.6348 47.09 11.3804 47.1954 11.1929 47.3829C11.0054 47.5704 10.9 47.8248 10.9 48.09C10.9 48.3552 11.0054 48.6096 11.1929 48.7971C11.3804 48.9846 11.6348 49.09 11.9 49.09H30.6C32.6166 50.0498 34.8411 50.4904 37.0714 50.3716C39.3016 50.2529 41.4667 49.5786 43.37 48.41L45.87 51.41V56ZM57.87 58.58C57.6259 58.8223 57.3335 59.0104 57.0118 59.1322C56.6902 59.254 56.3465 59.3067 56.0032 59.2869C55.6598 59.2671 55.3245 59.1752 55.019 59.0172C54.7135 58.8592 54.4446 58.6387 54.23 58.37L45 47.28C45.3 47.03 46.38 45.95 46.62 45.67L57.7 54.93C57.9703 55.1447 58.1922 55.414 58.3512 55.7204C58.5102 56.0268 58.6026 56.3634 58.6224 56.708C58.6423 57.0526 58.589 57.3975 58.4663 57.7201C58.3435 58.0427 58.1539 58.3358 57.91 58.58H57.87Z" fill="black"/>
<path d="M11.9 22.49H25.44C25.7052 22.49 25.9596 22.3846 26.1471 22.1971C26.3347 22.0096 26.44 21.7552 26.44 21.49C26.44 21.2248 26.3347 20.9704 26.1471 20.7829C25.9596 20.5953 25.7052 20.49 25.44 20.49H11.9C11.6348 20.49 11.3805 20.5953 11.1929 20.7829C11.0054 20.9704 10.9 21.2248 10.9 21.49C10.9 21.7552 11.0054 22.0096 11.1929 22.1971C11.3805 22.3846 11.6348 22.49 11.9 22.49V22.49Z" fill="black"/>
</svg>
