<?xml version="1.0" encoding="utf-8"?>
<!-- Generator: Adobe Illustrator 19.1.0, SVG Export Plug-In . SVG Version: 6.00 Build 0)  -->
<svg version="1.1" id="Layer_1" xmlns="http://www.w3.org/2000/svg" xmlns:xlink="http://www.w3.org/1999/xlink" x="0px" y="0px"
	 viewBox="0 0 1200 1200" enable-background="new 0 0 1200 1200" xml:space="preserve">
<g>
	<path fill="#64AFC6" d="M295.655,346.003c-1.256-3.672-2.735-7.553-4.426-12.528c-1.695-4.991-3.362-10.153-5.01-15.96
		c-1.544,5.9-3.144,11.478-4.786,16.512c-1.641,5.026-3.191,8.53-4.639,12.219L257.348,403h57.754L295.655,346.003z"/>
	<path fill="#64AFC6" d="M1003.36,50H172.056C93.086,50,50,117.215,50,168.412v811.182C50,1107.781,92.408,1150,209.829,1150
		h793.645c80.549,0,146.526-31.847,146.526-131.598V196.184C1150,117.215,1097.404,50,1003.36,50z M670.473,1130l-37.452-130.487
		c-5.002-17.494,1.679-33.716,15.384-44.076L636.323,915H181v-28h448.477l-5.709-20.576C548.305,881.183,472.861,867,411.804,825
		H181v-21h198.697c-20.351-20-38.421-41-53.417-62H181v-21h131.241c-9.019-20-16.441-36.199-21.993-55.619
		c-0.55-1.923-0.986-6.381-1.494-6.381H181v-28h102.419c-3.59-20-4.878-41-4.124-55H181v-28h100.129c4.795-41,17.727-76,37.407-110
		h-72.503l-12.48,36.939c-0.969,2.711-2.858,5.393-5.661,7.563c-2.806,2.17-6.241,3.498-10.303,3.498h-38.307l81.835-214h50.213
		l44.06,115.533C381.984,358.535,414.769,334,452.432,320H444v-28h109.397c10.289,0,20.526,0,30.683,0H1004v28H684.742
		c33.007,14,63.188,35,88.83,62H1004v21H794.962c14.638,21,27.178,42,37.16,62H1004v21H841.677c1.846,7,3.588,11.236,5.147,16.687
		c4.254,14.879,7.23,32.313,9.055,45.313H1004v28H857.77c0.793,21-0.593,35-4.08,55H1004v28H848.4c-5.601,21-13.595,42-23.718,62
		H1004v21H810.608c-14.727,21-32.585,42-53.2,62H1004v21H725.458c-16.619,14-34.558,20.415-53.639,27.683L681.458,887H1004v28
		H688.303l8.154,26.941c17.125,1.541,32.344,12.045,37.347,29.544L779.494,1130H670.473z"/>
	<path fill="#64AFC6" d="M1004,320v-28H584.08c35.081,7,69.151,14,100.662,28H1004z"/>
	<path fill="#FFFFFF" d="M1004,320v-28H584.08c35.081,7,69.151,14,100.662,28H1004z"/>
	<path fill="#64AFC6" d="M553.397,292H444v28h8.432c11.727-7,23.882-11.624,36.523-15.238C510.422,298.624,532.009,299,553.397,292z
		"/>
	<path fill="#FFFFFF" d="M553.397,292H444v28h8.432c11.727-7,23.882-11.624,36.523-15.238C510.422,298.624,532.009,299,553.397,292z
		"/>
	<path fill="#64AFC6" d="M794.962,403H1004v-21H773.572C781.109,389,788.259,396,794.962,403z"/>
	<path fill="#FFFFFF" d="M794.962,403H1004v-21H773.572C781.109,389,788.259,396,794.962,403z"/>
	<path fill="#64AFC6" d="M1004,486v-21H832.122c3.511,7,6.698,14,9.555,21H1004z"/>
	<path fill="#FFFFFF" d="M1004,486v-21H832.122c3.511,7,6.698,14,9.555,21H1004z"/>
	<path fill="#64AFC6" d="M1004,576v-28H855.878c0.98,7,1.585,14,1.892,28H1004z"/>
	<path fill="#FFFFFF" d="M1004,576v-28H855.878c0.98,7,1.585,14,1.892,28H1004z"/>
	<path fill="#64AFC6" d="M181,548v28h98.296c0.302-14,0.87-21,1.833-28H181z"/>
	<path fill="#FFFFFF" d="M181,548v28h98.296c0.302-14,0.87-21,1.833-28H181z"/>
	<path fill="#64AFC6" d="M1004,659v-28H853.69c-1.418,7-3.203,21-5.29,28H1004z"/>
	<path fill="#FFFFFF" d="M1004,659v-28H853.69c-1.418,7-3.203,21-5.29,28H1004z"/>
	<path fill="#64AFC6" d="M181,631v28h107.753c-2.105-7-3.928-21-5.334-28H181z"/>
	<path fill="#FFFFFF" d="M181,631v28h107.753c-2.105-7-3.928-21-5.334-28H181z"/>
	<path fill="#64AFC6" d="M181,721v21h145.279c-5.033-7-9.717-14-14.038-21H181z"/>
	<path fill="#FFFFFF" d="M181,721v21h145.279c-5.033-7-9.717-14-14.038-21H181z"/>
	<path fill="#64AFC6" d="M1004,742v-21H824.682c-4.308,7-9.003,14-14.075,21H1004z"/>
	<path fill="#FFFFFF" d="M1004,742v-21H824.682c-4.308,7-9.003,14-14.075,21H1004z"/>
	<path fill="#64AFC6" d="M181,804v21h230.804c-11.219-7-21.953-14-32.107-21H181z"/>
	<path fill="#FFFFFF" d="M181,804v21h230.804c-11.219-7-21.953-14-32.107-21H181z"/>
	<path fill="#64AFC6" d="M1004,825v-21H757.408c-10.026,7-20.674,14-31.95,21H1004z"/>
	<path fill="#FFFFFF" d="M1004,825v-21H757.408c-10.026,7-20.674,14-31.95,21H1004z"/>
	<polygon fill="#64AFC6" points="181,887 181,915 636.323,915 629.477,887 	"/>
	<polygon fill="#FFFFFF" points="181,887 181,915 636.323,915 629.477,887 	"/>
	<polygon fill="#64AFC6" points="1004,915 1004,887 681.458,887 688.303,915 	"/>
	<polygon fill="#FFFFFF" points="1004,915 1004,887 681.458,887 688.303,915 	"/>
	<path fill="#FFFFFF" d="M311.331,272h-50.213l-81.835,214h38.307c4.062,0,7.497-1.283,10.303-3.454
		c2.803-2.17,4.692-4.804,5.661-7.515L246.033,438h72.503c10.445-21,22.759-35.784,36.856-51.155L311.331,272z M276.794,346.303
		c1.449-3.689,2.998-7.588,4.639-12.614c1.643-5.034,3.242-10.274,4.786-16.174c1.648,5.806,3.315,11.306,5.01,16.298
		c1.69,4.975,3.169,8.462,4.426,12.134L315.102,403h-57.754L276.794,346.303z"/>
	<path fill="#64AFC6" d="M465.962,403H444v-21h278.066c-61.798-48-143.792-65.513-223.801-42.637
		c-52.877,15.119-97.022,45.271-128.985,85.16l17.641,45.01C409.935,437.644,440.737,417,465.962,403z"/>
	<path opacity="0.47" fill="#FFFFFF" d="M465.962,403H444v-21h278.066c-61.798-48-143.792-65.513-223.801-42.637
		c-52.877,15.119-97.022,45.271-128.985,85.16l17.641,45.01C409.935,437.644,440.737,417,465.962,403z"/>
	<path fill="#64AFC6" d="M785.79,721c11.724-20,20.906-41,27.386-62H396.767c-1.662,0-4.726,5.966-8.801,7.368
		c-0.239,0.114-0.48,0.512-0.761,0.592c-7.188,2.056-14.735-0.96-17.823-7.96h-45.456c6.594,21,15.873,42,27.369,62H785.79z"/>
	<path opacity="0.47" fill="#FFFFFF" d="M785.79,721c11.724-20,20.906-41,27.386-62H396.767c-1.662,0-4.726,5.966-8.801,7.368
		c-0.239,0.114-0.48,0.512-0.761,0.592c-7.188,2.056-14.735-0.96-17.823-7.96h-45.456c6.594,21,15.873,42,27.369,62H785.79z"/>
	<path fill="#64AFC6" d="M374.302,489.326c0.733-1.371,1.515-3.326,2.277-3.326h-21.428c-4.26,0-7.768-1.171-10.526-3.161
		c-2.757-1.981-4.666-4.604-5.73-7.718l-0.639-2.449c-11.45,23.791-19.236,48.328-22.9,75.328h40.07
		C358.158,528,364.417,507.818,374.302,489.326z"/>
	<path opacity="0.47" fill="#FFFFFF" d="M374.302,489.326c0.733-1.371,1.515-3.326,2.277-3.326h-21.428
		c-4.26,0-7.768-1.171-10.526-3.161c-2.757-1.981-4.666-4.604-5.73-7.718l-0.639-2.449c-11.45,23.791-19.236,48.328-22.9,75.328
		h40.07C358.158,528,364.417,507.818,374.302,489.326z"/>
	<path fill="#64AFC6" d="M393.341,631h425.835c3.954-20,5.59-34,4.692-55H384.13C384.04,590,387.102,611,393.341,631z"/>
	<path opacity="0.47" fill="#FFFFFF" d="M393.341,631h425.835c3.954-20,5.59-34,4.692-55H384.13C384.04,590,387.102,611,393.341,631
		z"/>
	<path fill="#64AFC6" d="M519.104,414.019c-0.86,0.406-82.591,22.425-118.282,89.437C393.389,517.416,388.484,535,385.999,548
		h435.704c-1.638-13-4.065-24.224-7.434-36.005c-2.49-8.707-5.416-18.995-8.722-25.995H444v-21h350.44
		c-12.001-20-27.187-41-44.814-62H529.668C528.271,410,524.338,412.5,519.104,414.019z"/>
	<path opacity="0.47" fill="#FFFFFF" d="M519.104,414.019c-0.86,0.406-82.591,22.425-118.282,89.437
		C393.389,517.416,388.484,535,385.999,548h435.704c-1.638-13-4.065-24.224-7.434-36.005c-2.49-8.707-5.416-18.995-8.722-25.995H444
		v-21h350.44c-12.001-20-27.187-41-44.814-62H529.668C528.271,410,524.338,412.5,519.104,414.019z"/>
	<path fill="#64AFC6" d="M353.88,576h-40.674c-0.854,14,0.663,35,4.741,55h44.024C356.475,611,353.811,590,353.88,576z"/>
	<path opacity="0.47" fill="#FFFFFF" d="M353.88,576h-40.674c-0.854,14,0.663,35,4.741,55h44.024
		C356.475,611,353.811,590,353.88,576z"/>
	<path fill="#64AFC6" d="M638.781,827.473c2.665-0.762,5.268-2.473,7.888-2.473H490.12C536.726,839,588.154,841.948,638.781,827.473
		z"/>
	<path opacity="0.47" fill="#FFFFFF" d="M638.781,827.473c2.665-0.762,5.268-2.473,7.888-2.473H490.12
		C536.726,839,588.154,841.948,638.781,827.473z"/>
	<path fill="#64AFC6" d="M437.457,804h262.314c26.942-20,50.229-41,69.158-62H368.047C387.441,770,411.046,791,437.457,804z"/>
	<path opacity="0.47" fill="#FFFFFF" d="M437.457,804h262.314c26.942-20,50.229-41,69.158-62H368.047
		C387.441,770,411.046,791,437.457,804z"/>
	<path fill="#64AFC6" d="M444,403h21.962c24.452-14,43.656-17.69,45.356-18.191c8.077-2.15,16.316,2.549,18.447,10.585
		c0.713,2.647,0.586,7.606-0.096,7.606h219.957c-8.632-7-17.842-14-27.559-21H444V403z"/>
	<path fill="#FFFFFF" d="M444,403h21.962c24.452-14,43.656-17.69,45.356-18.191c8.077-2.15,16.316,2.549,18.447,10.585
		c0.713,2.647,0.586,7.606-0.096,7.606h219.957c-8.632-7-17.842-14-27.559-21H444V403z"/>
	<path opacity="0.47" fill="#FFFFFF" d="M444,403h21.962c24.452-14,43.656-17.69,45.356-18.191
		c8.077-2.15,16.316,2.549,18.447,10.585c0.713,2.647,0.586,7.606-0.096,7.606h219.957c-8.632-7-17.842-14-27.559-21H444V403z"/>
	<path fill="#64AFC6" d="M444,486h361.548c-3.313-7-7.033-14-11.108-21H444V486z"/>
	<path fill="#FFFFFF" d="M444,486h361.548c-3.313-7-7.033-14-11.108-21H444V486z"/>
	<path opacity="0.47" fill="#FFFFFF" d="M444,486h361.548c-3.313-7-7.033-14-11.108-21H444V486z"/>
	<path fill="#64AFC6" d="M384.13,576h439.738c-0.346-14-1.054-21-2.165-28H385.999C384.792,555,384.17,562,384.13,576z"/>
	<path fill="#FFFFFF" d="M384.13,576h439.738c-0.346-14-1.054-21-2.165-28H385.999C384.792,555,384.17,562,384.13,576z"/>
	<path opacity="0.47" fill="#FFFFFF" d="M384.13,576h439.738c-0.346-14-1.054-21-2.165-28H385.999
		C384.792,555,384.17,562,384.13,576z"/>
	<path fill="#64AFC6" d="M355.427,548h-40.07c-1.092,7-1.808,14-2.151,28h40.674C353.909,562,354.413,555,355.427,548z"/>
	<path fill="#FFFFFF" d="M355.427,548h-40.07c-1.092,7-1.808,14-2.151,28h40.674C353.909,562,354.413,555,355.427,548z"/>
	<path opacity="0.47" fill="#FFFFFF" d="M355.427,548h-40.07c-1.092,7-1.808,14-2.151,28h40.674
		C353.909,562,354.413,555,355.427,548z"/>
	<path fill="#64AFC6" d="M397.35,645.793c1.303,3.824,0.966,6.207-0.583,13.207h416.409c2.379-7,4.383-21,6-28H393.341
		C394.569,638,395.876,641.492,397.35,645.793z"/>
	<path fill="#FFFFFF" d="M397.35,645.793c1.303,3.824,0.966,6.207-0.583,13.207h416.409c2.379-7,4.383-21,6-28H393.341
		C394.569,638,395.876,641.492,397.35,645.793z"/>
	<path opacity="0.47" fill="#FFFFFF" d="M397.35,645.793c1.303,3.824,0.966,6.207-0.583,13.207h416.409c2.379-7,4.383-21,6-28
		H393.341C394.569,638,395.876,641.492,397.35,645.793z"/>
	<path fill="#64AFC6" d="M368.762,655.605c-2.612-7.631-4.863-17.605-6.79-24.605h-44.024c1.361,7,2.928,15.642,4.869,22.43
		c0.342,1.195,0.751,5.57,1.108,5.57h45.456C369.174,659,368.927,656.087,368.762,655.605z"/>
	<path fill="#FFFFFF" d="M368.762,655.605c-2.612-7.631-4.863-17.605-6.79-24.605h-44.024c1.361,7,2.928,15.642,4.869,22.43
		c0.342,1.195,0.751,5.57,1.108,5.57h45.456C369.174,659,368.927,656.087,368.762,655.605z"/>
	<path opacity="0.47" fill="#FFFFFF" d="M368.762,655.605c-2.612-7.631-4.863-17.605-6.79-24.605h-44.024
		c1.361,7,2.928,15.642,4.869,22.43c0.342,1.195,0.751,5.57,1.108,5.57h45.456C369.174,659,368.927,656.087,368.762,655.605z"/>
	<path fill="#64AFC6" d="M368.047,742h400.882c6.06-7,11.725-14,16.861-21H351.294C356.455,728,362.035,735,368.047,742z"/>
	<path fill="#FFFFFF" d="M368.047,742h400.882c6.06-7,11.725-14,16.861-21H351.294C356.455,728,362.035,735,368.047,742z"/>
	<path opacity="0.47" fill="#FFFFFF" d="M368.047,742h400.882c6.06-7,11.725-14,16.861-21H351.294
		C356.455,728,362.035,735,368.047,742z"/>
	<path fill="#64AFC6" d="M490.12,825h156.549c18.927-7,36.693-14,53.102-21H437.457C454.032,811,471.685,818,490.12,825z"/>
	<path fill="#FFFFFF" d="M490.12,825h156.549c18.927-7,36.693-14,53.102-21H437.457C454.032,811,471.685,818,490.12,825z"/>
	<path opacity="0.47" fill="#FFFFFF" d="M490.12,825h156.549c18.927-7,36.693-14,53.102-21H437.457
		C454.032,811,471.685,818,490.12,825z"/>
	<path fill="#FFFFFF" d="M344.626,482.839c2.758,1.99,6.265,3.161,10.526,3.161h21.428c3.22-7,6.669-11.233,10.341-16.322
		l-17.641-45.667c-12.18,15.2-22.596,31.665-31.023,49.176l0.639,1.957C339.959,478.258,341.868,480.858,344.626,482.839z"/>
	<path opacity="0.47" fill="#FFFFFF" d="M344.626,482.839c2.758,1.99,6.265,3.161,10.526,3.161h21.428
		c3.22-7,6.669-11.233,10.341-16.322l-17.641-45.667c-12.18,15.2-22.596,31.665-31.023,49.176l0.639,1.957
		C339.959,478.258,341.868,480.858,344.626,482.839z"/>
	<path fill="#173D4E" d="M680.847,941.813c5.229-1.495,10.5-1.907,15.609-1.448l-8.154-28.517l-6.845-23.941l-9.638-33.708
		c19.081-7.268,37.02-16.359,53.639-27.073c11.275-7.268,21.924-15.286,31.95-23.932c20.615-17.778,38.473-38.28,53.2-60.79
		c5.071-7.752,9.767-15.735,14.075-23.931c10.123-19.258,18.117-39.635,23.718-60.79c2.087-7.883,3.872-15.86,5.29-23.932
		c3.487-19.852,4.873-40.215,4.08-60.79c-0.307-7.952-0.912-15.933-1.892-23.931c-1.825-14.89-4.801-29.829-9.055-44.708
		c-1.559-5.451-3.301-10.797-5.147-16.082c-2.857-8.182-6.043-16.165-9.555-23.931c-9.982-22.076-22.521-42.42-37.16-60.782
		c-6.703-8.409-13.853-16.389-21.39-23.941c-25.641-25.688-55.822-46.29-88.83-60.782c-31.511-13.835-65.582-22.053-100.662-23.939
		c-10.157-0.546-20.393-0.547-30.683,0c-21.388,1.138-42.975,4.593-64.442,10.732c-12.641,3.614-24.796,8.088-36.523,13.207
		c-37.663,16.441-70.447,40.237-97.04,69.235c-14.097,15.372-26.411,32.214-36.856,50.141
		c-19.68,33.778-32.612,71.453-37.407,110.85c-0.963,7.912-1.532,15.902-1.833,23.931c-0.754,20.052,0.533,40.404,4.124,60.79
		c1.406,7.981,3.229,15.961,5.334,23.932c0.508,1.925,0.945,3.853,1.494,5.776c5.553,19.42,12.975,37.798,21.993,55.014
		c4.322,8.25,9.005,16.235,14.038,23.931c14.997,22.933,33.066,43.3,53.417,60.79c10.155,8.727,20.889,16.71,32.107,23.932
		c61.057,39.306,136.501,55.573,211.964,40.814l5.709,19.967l6.845,23.941l12.084,42.262c4.093-3.094,8.785-5.533,14.014-7.028
		L680.847,941.813z M322.817,654.147c-1.941-6.789-3.508-13.592-4.869-20.396c-4.078-20.382-5.595-40.759-4.741-60.79
		c0.343-8.044,1.059-16.026,2.151-23.931c3.664-26.51,11.449-52.098,22.9-75.888c8.427-17.511,18.843-34.022,31.023-49.222
		c31.963-39.889,76.107-70.645,128.985-85.764c80.009-22.876,162.003-4.939,223.801,41.429c9.718,7.291,18.928,15.29,27.559,23.941
		c17.628,17.666,32.813,38.055,44.814,60.782c4.075,7.717,7.795,15.693,11.108,23.931c3.306,8.22,6.232,16.683,8.722,25.39
		c3.368,11.781,5.795,23.604,7.434,35.401c1.111,7.998,1.819,15.979,2.165,23.931c0.898,20.63-0.738,41.014-4.692,60.79
		c-1.618,8.092-3.621,16.075-6,23.932c-6.48,21.4-15.663,41.857-27.386,60.79c-5.136,8.294-10.8,16.259-16.861,23.931
		c-18.929,23.966-42.216,44.691-69.158,60.79c-16.409,9.805-34.175,17.863-53.102,23.932c-2.62,0.84-5.223,1.711-7.888,2.473
		c-50.627,14.475-102.055,12.598-148.661-2.473c-18.435-5.961-36.088-14.03-52.663-23.932c-26.41-15.777-50.016-36.284-69.409-60.79
		c-6.012-7.597-11.593-15.594-16.753-23.931c-11.496-18.575-20.775-38.914-27.369-60.79
		C323.568,656.497,323.158,655.341,322.817,654.147z"/>
	<path fill="#D00F2E" d="M696.456,940.365c-5.109-0.459-10.38-0.048-15.609,1.448l-18.427,5.269
		c-5.229,1.495-9.921,3.934-14.014,7.028c-13.705,10.36-20.387,28.407-15.384,45.901l37.452,130.984h109.021l-45.691-159.8
		C728.801,953.695,713.582,941.906,696.456,940.365z"/>
	<path fill="#173D4E" d="M397.35,646.51c-1.474-4.301-2.781-8.544-4.009-12.759c-6.239-21.408-9.301-41.697-9.211-60.79
		c0.039-8.201,0.662-16.18,1.868-23.931c2.485-15.957,7.39-30.967,14.824-44.927c35.691-67.012,117.422-89.414,118.282-89.82
		c5.234-1.519,9.166-5.724,10.564-10.757c0.682-2.455,0.809-5.091,0.096-7.737c-2.131-8.036-10.37-12.866-18.447-10.716
		c-1.7,0.501-20.903,5.768-45.356,18.453c-25.225,13.086-56.027,34.08-79.041,65.969c-3.673,5.089-7.121,10.482-10.341,16.137
		c-0.762,1.339-1.544,2.654-2.277,4.025c-9.886,18.491-16.144,38.324-18.876,59.373c-1.013,7.807-1.518,15.789-1.547,23.931
		c-0.069,19.357,2.595,39.63,8.091,60.79c1.927,7.419,4.179,14.941,6.79,22.571c0.165,0.482,0.413,0.907,0.62,1.361
		c3.088,6.758,10.635,10.345,17.823,8.289c0.281-0.08,0.522-0.149,0.761-0.263c4.075-1.402,7.139-4.386,8.801-8.027
		C398.316,654.291,398.653,650.333,397.35,646.51z"/>
</g>
</svg>
